<!DOCTYPE svg PUBLIC "-//W3C//DTD SVG 1.1//EN" "http://www.w3.org/Graphics/SVG/1.1/DTD/svg11.dtd">
<!-- Uploaded to: SVG Repo, www.svgrepo.com, Transformed by: SVG Repo Mixer Tools -->
<svg width="800px" height="800px" viewBox="0 -0.19 20.414 20.414" xmlns="http://www.w3.org/2000/svg" fill="#000000">
<g id="SVGRepo_bgCarrier" stroke-width="0"/>
<g id="SVGRepo_tracerCarrier" stroke-linecap="round" stroke-linejoin="round"/>
<g id="SVGRepo_iconCarrier"> <g id="delete-user-8" transform="translate(-2 -1.974)"> <path id="secondary" fill="#ba2c2c" d="M13,17a6,6,0,0,1,3.4-5.4A6,6,0,1,0,5,9a5.94,5.94,0,0,0,1.34,3.77,1,1,0,0,1-.28,1.45A7,7,0,0,0,3,20a1,1,0,0,0,1,1H14.54A5.93,5.93,0,0,1,13,17Z"/> <line id="primary" x2="3" y2="3" transform="translate(18 15)" fill="none" stroke="#000000" stroke-linecap="round" stroke-linejoin="round" stroke-width="2"/> <line id="primary-2" data-name="primary" x1="3" y2="3" transform="translate(18 15)" fill="none" stroke="#000000" stroke-linecap="round" stroke-linejoin="round" stroke-width="2"/> <path id="primary-3" data-name="primary" d="M15,21H4a1,1,0,0,1-1-1,7,7,0,0,1,3.06-5.78,1,1,0,0,0,.28-1.45A5.94,5.94,0,0,1,5,9,6,6,0,0,1,16.92,8a5.9,5.9,0,0,1-.27,3" fill="none" stroke="#000000" stroke-linecap="round" stroke-linejoin="round" stroke-width="2"/> </g> </g>
</svg>